<?xml version="1.0" standalone="no"?>
<svg xmlns:xlink="http://www.w3.org/1999/xlink" id="wave" style="transform:rotate(180deg); transition: 0.3s" viewBox="0 0 1440 490" version="1.1" xmlns="http://www.w3.org/2000/svg"><defs><linearGradient id="sw-gradient-0" x1="0" x2="0" y1="1" y2="0"><stop stop-color="rgba(45, 45, 45, 1)" offset="0%"/><stop stop-color="rgba(45, 45, 45, 1)" offset="100%"/></linearGradient></defs><path style="transform:translate(0, 0px); opacity:1" fill="url(#sw-gradient-0)" d="M0,294L80,310.3C160,327,320,359,480,334.8C640,310,800,229,960,228.7C1120,229,1280,310,1440,310.3C1600,310,1760,229,1920,187.8C2080,147,2240,147,2400,147C2560,147,2720,147,2880,179.7C3040,212,3200,278,3360,261.3C3520,245,3680,147,3840,130.7C4000,114,4160,180,4320,228.7C4480,278,4640,310,4800,277.7C4960,245,5120,147,5280,114.3C5440,82,5600,114,5760,138.8C5920,163,6080,180,6240,220.5C6400,261,6560,327,6720,326.7C6880,327,7040,261,7200,220.5C7360,180,7520,163,7680,204.2C7840,245,8000,343,8160,367.5C8320,392,8480,343,8640,326.7C8800,310,8960,327,9120,334.8C9280,343,9440,343,9600,326.7C9760,310,9920,278,10080,261.3C10240,245,10400,245,10560,220.5C10720,196,10880,147,11040,147C11200,147,11360,196,11440,220.5L11520,245L11520,490L11440,490C11360,490,11200,490,11040,490C10880,490,10720,490,10560,490C10400,490,10240,490,10080,490C9920,490,9760,490,9600,490C9440,490,9280,490,9120,490C8960,490,8800,490,8640,490C8480,490,8320,490,8160,490C8000,490,7840,490,7680,490C7520,490,7360,490,7200,490C7040,490,6880,490,6720,490C6560,490,6400,490,6240,490C6080,490,5920,490,5760,490C5600,490,5440,490,5280,490C5120,490,4960,490,4800,490C4640,490,4480,490,4320,490C4160,490,4000,490,3840,490C3680,490,3520,490,3360,490C3200,490,3040,490,2880,490C2720,490,2560,490,2400,490C2240,490,2080,490,1920,490C1760,490,1600,490,1440,490C1280,490,1120,490,960,490C800,490,640,490,480,490C320,490,160,490,80,490L0,490Z"/></svg>