<?xml version="1.0" standalone="no"?>
<svg xmlns:xlink="http://www.w3.org/1999/xlink" id="wave" style="transform:rotate(180deg); transition: 0.3s" viewBox="0 0 1440 490" version="1.1" xmlns="http://www.w3.org/2000/svg"><defs><linearGradient id="sw-gradient-0" x1="0" x2="0" y1="1" y2="0"><stop stop-color="rgba(106, 189, 101, 1)" offset="0%"/><stop stop-color="rgba(106, 189, 101, 1)" offset="100%"/></linearGradient></defs><path style="transform:translate(0, 0px); opacity:1" fill="url(#sw-gradient-0)" d="M0,49L240,40.8C480,33,960,16,1440,49C1920,82,2400,163,2880,187.8C3360,212,3840,180,4320,204.2C4800,229,5280,310,5760,334.8C6240,359,6720,327,7200,310.3C7680,294,8160,294,8640,277.7C9120,261,9600,229,10080,179.7C10560,131,11040,65,11520,57.2C12000,49,12480,98,12960,122.5C13440,147,13920,147,14400,179.7C14880,212,15360,278,15840,318.5C16320,359,16800,376,17280,392C17760,408,18240,425,18720,424.7C19200,425,19680,408,20160,367.5C20640,327,21120,261,21600,253.2C22080,245,22560,294,23040,277.7C23520,261,24000,180,24480,130.7C24960,82,25440,65,25920,81.7C26400,98,26880,147,27360,212.3C27840,278,28320,359,28800,392C29280,425,29760,408,30240,392C30720,376,31200,359,31680,367.5C32160,376,32640,408,33120,408.3C33600,408,34080,376,34320,359.3L34560,343L34560,490L34320,490C34080,490,33600,490,33120,490C32640,490,32160,490,31680,490C31200,490,30720,490,30240,490C29760,490,29280,490,28800,490C28320,490,27840,490,27360,490C26880,490,26400,490,25920,490C25440,490,24960,490,24480,490C24000,490,23520,490,23040,490C22560,490,22080,490,21600,490C21120,490,20640,490,20160,490C19680,490,19200,490,18720,490C18240,490,17760,490,17280,490C16800,490,16320,490,15840,490C15360,490,14880,490,14400,490C13920,490,13440,490,12960,490C12480,490,12000,490,11520,490C11040,490,10560,490,10080,490C9600,490,9120,490,8640,490C8160,490,7680,490,7200,490C6720,490,6240,490,5760,490C5280,490,4800,490,4320,490C3840,490,3360,490,2880,490C2400,490,1920,490,1440,490C960,490,480,490,240,490L0,490Z"/></svg>